<svg class="icon" width="200" height="200" viewBox="0 0 1024 1024" xmlns="http://www.w3.org/2000/svg"><path fill="#333" d="M830.08 554.795a18.901 18.901 0 00-22.059 15.402 322.901 322.901 0 01-318.464 266.411c-178.389 0-323.498-145.11-323.498-323.499A323.413 323.413 0 01757.76 332.203a319.83 319.83 0 0150.261 123.818 19.072 19.072 0 0037.462-6.656 356.95 356.95 0 00-56.15-138.453A361.301 361.301 0 00489.6 151.552 361.43 361.43 0 00128 513.109c0 199.382 162.219 361.558 361.557 361.558a360.875 360.875 0 00355.926-297.771 19.03 19.03 0 00-15.36-22.101M284.16 512a20.139 20.139 0 000 40.277h436.053a20.139 20.139 0 000-40.277H284.16z"/></svg>